<?xml version="1.0" encoding="utf-8"?>
<!-- Generator: Adobe Illustrator 22.0.1, SVG Export Plug-In . SVG Version: 6.00 Build 0)  -->
<svg version="1.1" id="Layer_1" xmlns="http://www.w3.org/2000/svg" xmlns:xlink="http://www.w3.org/1999/xlink" x="0px" y="0px"
	 viewBox="0 0 1020 145" style="enable-background:new 0 0 1020 145;" xml:space="preserve" className="fill-white">
<style type="text/css">
	svg{
		fill: #000000;
	}
</style>
<path class="st0" style="fill:white;" d="M1006,36.6c0,6.6-5.4,11.9-12,11.9c-6.6,0-12-5.4-12-11.9c0-6.6,5.4-12,12-12C1000.6,24.7,1006,30,1006,36.6z
	 M1004.1,36.6L1004.1,36.6c0-5.5-4.5-10-9.9-10.1c-5.4,0-10,4.4-10,9.9v0.1c0,5.5,4.4,9.9,9.9,9.9C999.5,46.5,1004,42.1,1004.1,36.6
	z M989.6,43.2h2.5v-5.6h2.6l3.6,5.9l2.2-1.4l-3.6-5.1c1.8-0.5,2.9-2,2.9-3.9c0-2.7-2.4-3.6-5.3-3.6h-4.8V43.2z M992,31.3h2
	c1.4,0,2.9,0.3,2.9,2.1c0,1.5-1.4,2.4-3,2.4h-2V31.3z M156.7,38.7v22h17l18.1,20.6c8.4-8,17.5-16.8,25.7-24.6l-18.8-18L156.7,38.7z
	 M275.7,112.5l-25-23.9c-8.4,9.5-18,20.5-26.3,30l15.2,17.3h45.9v-23.4H275.7z M462.6,112.4c-2.9-1.2-4.5-4.5-4.5-9.7V-1.4H403v23.3
	h8l0.1,68.6c-10,11.8-24.1,21.8-48.4,21.4c-16.2-0.3-22.2-9.9-22.2-26.2c0-14.8,2.5-26.6,13.2-27.2c2.8-0.1,5.6,0,9.8,1.6l0,15.6
	h29.4V44c-8.4-4.1-18.3-7.2-39-7.2h-3.7c-38.3,0.8-60,20.2-60,51.9c0,31.5,16.7,50.3,58.7,50.3h1.9c29.7,0,48.7-11.7,60.4-23.7
	c1.6,16.6,21.8,22.9,32,23c9.3,0,20-1.2,26-3.1l3.3-24.1c-3.5,0.8-5.6,1.9-7.6,1.9C464.2,113,463.4,112.8,462.6,112.4z M977.7,112.5
	V64.2c0-16.9-17.1-27.2-33.2-27.2c-12.8,0-28.9,2.5-37.7,10.1l-0.4-8.4h-55.6v22h7.4v51.8h-7.2v23.4h62v-23.4h-6.8V79
	c0-10.7,0-16.1,9.7-17.9c1.4-0.2,2.7-0.4,3.9-0.4c6.8,0,8.9,4.3,8.9,11.5v40.3h-7.6v23.4h65.3v-23.3L977.7,112.5z M775.6,35.5
	c-49.3,0-67.4,26-67.4,52.4c0,5.4,0.7,10.8,2.2,16c-4.2,3.1-10.6,10.4-25,10.4h-0.4c-5.4,0-12.1,0-12.7-13.4l0-40.2h22.9V38.8h-22.9
	V16.4l-32.8-0.2c-2.1,7.8-3.1,12.6-8.4,18.5c-4.7,5.4-9.3,8.5-16.1,10.7v15.3h9.5l0.2,50.7c0,18.8,20.3,27.8,42.7,27.8
	c22.7,0,38-10.1,50.6-20.1c9.7,12.5,27.3,21.3,56.1,21.3c50.9,0,68.9-24.7,68.9-50.9C843.2,63,823.6,35.5,775.6,35.5z M775.6,114.9
	c-14.4,0-16.3-12-17.1-28.4v-2.7c0-14.6,5.6-25.1,16.9-25.1h1c13.4,0.6,15.7,10.5,15.7,28.4C792.1,104.4,790.2,114.9,775.6,114.9z
	 M601.8,38.7h-56.6v22h8v35.7c0,10.7,0,16.1-9.7,17.9c-1.4,0.2-2.5,0.4-3.5,0.4c-6.6,0-7.6-4.7-7.6-11.7V38.7h-57.3v22h8.4V111
	c0,16.7,17.1,27,33.2,27c12.8,0,27.2-2.1,35.9-9.7l0.5,7.6h57v-23.4h-8.3V38.7z M78,31.5V58h44.4v21.2H78.5v33.4h32.6V95.4h35.9
	v40.5H10.8v-23.4h11.6v-81H10.8V7.2H142v37.1h-34.7V31.5H78z M243.6,38.7l-77.1,73.8h-9.8v23.4h45.9l66-75.2h17v-22L243.6,38.7z"/>
</svg>
