<svg width="200px" height="48px" viewBox="0 0 200 48" version="1.1" xmlns="http://www.w3.org/2000/svg" xmlns:xlink="http://www.w3.org/1999/xlink">
    <g id="Desktop" stroke="none" stroke-width="1" fill="none" fill-rule="evenodd">
        <g transform="translate(-104.000000, -56.000000)" fill-rule="nonzero">
            <g transform="translate(0.000000, 32.000000)">
                <g id="LogoLight" transform="translate(104.000000, 24.000000)">
                    <polygon fill="#FCB900" points="83.3730961 34.3056709 83.3730961 22.9100155 69.3843216 22.9100155 69.3843216 34.3056709 64.0286193 34.3056709 64.0286193 6.09351018 69.3843216 6.09351018 69.3843216 18.0035528 83.3730961 18.0035528 83.3730961 6.09351018 88.6888304 6.09351018 88.6888304 34.3056709 83.3730961 34.3056709"></polygon>
                    <path d="M101.158824,10.8812682 L92.1260721,10.8812682 L92.1260721,6.05394193 C100.359465,6.05394193 107.313884,6.05394193 115.587245,6.05394193 L115.587245,10.8812682 L106.554494,10.8812682 L106.554494,34.2661027 L101.198792,34.2661027 L101.198792,10.8812682 L101.158824,10.8812682 Z" fill="#FCB900"></path>
                    <path d="M199.999755,20.2193747 C199.95954,27.618637 195.203356,34.7804899 185.611054,34.7804899 C176.058719,34.7804899 171.2226,27.618637 171.2226,20.1402382 C171.2226,12.5431346 175.978783,5.6186912 185.611054,5.6186912 C195.243324,5.6186912 200.039476,12.5827028 199.999755,20.2193747 Z M173.420836,20.1798064 C173.460804,26.5502943 177.537533,32.7625093 185.651022,32.7625093 C193.804479,32.7625093 197.921175,26.5502943 197.921175,20.1798064 C197.921175,13.6510455 193.844447,7.63667185 185.651022,7.63667185 C177.457597,7.63667185 173.380868,13.5323408 173.420836,20.1798064 Z" fill="#FFFFFF"></path>
                    <path d="M54.6361564,24.413609 L54.6361564,27.6977735 C52.3979525,29.4783447 50.4395241,29.9531637 48.2013202,29.9531637 C41.1269971,29.9531637 38.3692101,25.1654057 38.3692101,20.5359207 C38.3692101,14.7193882 42.0862273,10.1294715 48.2013202,10.1294715 C50.6793317,10.1294715 53.5170545,11.1186777 55.435515,12.9388171 L58.7928209,9.53594774 C55.8751622,6.6870339 52.0382412,5.22300872 48.2013202,5.22300872 C38.1294025,5.22300872 33.1334116,12.5431346 33.1334116,20.4963524 C33.1334116,27.8956148 37.4899157,34.8991946 48.2013202,34.8991946 C53.1973111,34.8991946 56.7544566,32.9999188 59.5522115,29.8344589 L59.5522115,24.413609 L54.6361564,24.413609 Z" fill="#FCB900"></path>
                    <polygon fill="#FCB900" points="23.9008205 11.9496109 23.9008205 34.2661027 29.2165548 34.2661027 29.2165548 11.1582459"></polygon>
                    <polygon fill="#FCB900" points="18.3452786 29.3596399 5.39567017 29.3596399 5.39567017 6.05394193 0.0399679272 6.05394193 0.0399679272 34.2661027 19.1046692 34.2661027"></polygon>
                    <polygon fill="#FFFFFF" points="23.9008205 6.96401163 29.2964906 6.09351018 29.2964906 0 23.9008205 0"></polygon>
                    <path d="M158.752607,23.463971 C164.987603,23.463971 168.025166,19.4280097 167.985198,14.838093 C167.94523,10.4460174 164.827732,6.05394193 158.632703,6.05394193 C154.436071,6.05394193 150.279406,6.05394193 146.082774,6.05394193 L146.082774,34.2661027 L148.28101,34.2661027 L148.28101,8.07192257 L158.632703,8.07192257 C163.348918,8.07192257 165.62709,11.5143601 165.587122,14.7985247 C165.547154,18.7553495 163.348918,21.5251269 158.392895,21.5251269 L154.83575,21.5251269 L154.83575,23.5826757 L156.074756,23.5826757 L165.946834,34.2661027 L168.824524,34.2661027 L158.752607,23.463971 Z" fill="#FFFFFF"></path>
                    <path d="M131.934128,6.05394193 C127.777463,6.05394193 123.580831,6.05394193 119.424166,6.05394193 L119.424166,18.0035528 L121.622402,18.0035528 L121.622402,8.07192257 L131.934128,8.07192257 C141.406526,8.07192257 141.406526,22.5539013 131.934128,22.5539013 L119.424166,22.5539013 L119.424166,34.3056709 L121.622402,34.3056709 L121.622402,24.5323137 L131.934128,24.5323137 C144.284217,24.5323137 144.284217,6.05394193 131.934128,6.05394193 Z" fill="#FFFFFF"></path>
                    <rect fill="#FFFFFF" x="45.0438539" y="18.043121" width="14.5483255" height="4.787758"></rect>
                    <g transform="translate(0.000000, 40.953137)" fill="#FFFFFF">
                        <path d="M0.0399679272,0.0791364958 L2.39807563,0.0791364958 C2.63788319,0.0791364958 2.91765868,0.118704744 3.11749832,0.158272992 C3.35730588,0.237409487 3.59711345,0.356114231 3.83692101,0.553955471 C4.03676064,0.712228462 4.19663235,0.910069702 4.31653613,1.18704744 C4.43643992,1.46402517 4.51637577,1.78057116 4.51637577,2.13668539 C4.51637577,2.61150436 4.35650406,3.08632334 3.99679272,3.48200582 C3.63708137,3.91725654 3.15746625,4.11509778 2.47801148,4.15466603 L0.999198179,4.15466603 L0.999198179,6.72660214 L0,6.72660214 L0,0.0791364958 L0.0399679272,0.0791364958 L0.0399679272,0.0791364958 Z M0.999198179,3.16545983 L2.43804356,3.16545983 C2.7977549,3.16545983 3.07753039,3.04675509 3.27737003,2.8093456 C3.43724174,2.57193611 3.55714552,2.33452663 3.55714552,2.09711714 C3.55714552,1.85970765 3.51717759,1.70143466 3.43724174,1.54316167 C3.35730588,1.42445692 3.27737003,1.30575218 3.11749832,1.22661568 C2.91765868,1.10791094 2.67785112,1.02877445 2.39807563,1.02877445 L0.959230252,1.02877445 L0.959230252,3.16545983 L0.999198179,3.16545983 Z"></path>
                        <path d="M7.47400238,0.0791364958 L9.99198179,0.0791364958 C10.5515328,0.0791364958 10.99118,0.237409487 11.3109234,0.514387223 C11.7106027,0.830933206 11.9504102,1.30575218 11.9504102,1.93884415 C11.9504102,2.84891385 11.510763,3.44243757 10.7114045,3.75898355 L12.2301857,6.6870339 L11.0711158,6.6870339 L9.7122063,3.83812005 L8.47320056,3.83812005 L8.47320056,6.6870339 L7.47400238,6.6870339 L7.47400238,0.0791364958 L7.47400238,0.0791364958 Z M8.43323263,2.96761859 L9.91204594,2.96761859 C10.2717573,2.96761859 10.5515328,2.84891385 10.7513724,2.65107261 C10.951212,2.45323137 11.0311479,2.21582188 11.0311479,1.93884415 C11.0311479,1.58272992 10.9112441,1.34532043 10.7114045,1.18704744 C10.5515328,1.06834269 10.3117252,0.989206198 9.99198179,0.989206198 L8.43323263,0.989206198 L8.43323263,2.96761859 L8.43323263,2.96761859 Z"></path>
                        <path d="M14.8680689,3.40286932 C14.8680689,2.65107261 14.9080368,2.09711714 14.9480048,1.85970765 C14.9879727,1.58272992 15.0679085,1.38488868 15.1478444,1.22661568 C15.3077161,0.910069702 15.5475237,0.633091966 15.907235,0.395682479 C16.2669464,0.158272992 16.6666256,0.0395682479 17.1862087,0.0395682479 C17.7057917,0.0395682479 18.1454389,0.158272992 18.4651824,0.395682479 C18.8248937,0.633091966 19.0647013,0.910069702 19.184605,1.22661568 C19.3045088,1.38488868 19.3844447,1.58272992 19.4244126,1.85970765 C19.4643805,2.13668539 19.4643805,2.65107261 19.4643805,3.40286932 C19.4643805,4.15466603 19.4643805,4.66905325 19.4244126,4.94603099 C19.3844447,5.22300872 19.3045088,5.42084996 19.184605,5.57912295 C19.0247333,5.89566894 18.7849258,6.17264667 18.4651824,6.37048791 C18.105471,6.6078974 17.7057917,6.72660214 17.1862087,6.76617039 C16.6666256,6.76617039 16.2669464,6.6078974 15.907235,6.37048791 C15.5475237,6.13307842 15.3077161,5.85610069 15.1478444,5.57912295 C15.1078765,5.46041821 15.0679085,5.38128171 15.0279406,5.30214522 C14.9879727,5.22300872 14.9480048,5.10430398 14.9480048,4.94603099 C14.8680689,4.66905325 14.8680689,4.15466603 14.8680689,3.40286932 Z M15.8272992,3.40286932 C15.8272992,4.03596129 15.8672671,4.51078026 15.907235,4.7086215 C15.9472029,4.94603099 16.0271388,5.14387223 16.1470426,5.26257697 C16.2669464,5.38128171 16.3868501,5.49998646 16.5467219,5.57912295 C16.7065936,5.6978277 16.9064332,5.73739595 17.1462408,5.73739595 C17.3860483,5.73739595 17.585888,5.6978277 17.7457597,5.57912295 C17.9056314,5.49998646 18.0255352,5.38128171 18.1454389,5.26257697 C18.2653427,5.10430398 18.3452786,4.94603099 18.4252144,4.7086215 C18.4651824,4.47121201 18.5051503,4.03596129 18.5051503,3.40286932 C18.5051503,2.76977735 18.4651824,2.29495838 18.4252144,2.05754889 C18.3852465,1.8201394 18.3053106,1.66186641 18.1454389,1.50359342 C18.0655031,1.38488868 17.9056314,1.26618393 17.7457597,1.14747919 C17.585888,1.06834269 17.3860483,1.02877445 17.1462408,0.989206198 C16.9064332,0.989206198 16.7065936,1.02877445 16.5467219,1.14747919 C16.3868501,1.22661568 16.2269784,1.34532043 16.1470426,1.50359342 C16.0271388,1.66186641 15.9472029,1.8201394 15.907235,2.05754889 C15.8672671,2.29495838 15.8272992,2.73020911 15.8272992,3.40286932 Z"></path>
                        <polygon points="22.6618147 0.0791364958 26.8184791 0.0791364958 26.8184791 1.02877445 23.6610129 1.02877445 23.6610129 2.96761859 26.338864 2.96761859 26.338864 3.83812005 23.6610129 3.83812005 23.6610129 6.6870339 22.6618147 6.6870339"></polygon>
                        <polygon points="29.616234 0.0791364958 33.7728985 0.0791364958 33.7728985 1.02877445 30.6154322 1.02877445 30.6154322 2.92805034 33.2932833 2.92805034 33.2932833 3.7985518 30.6154322 3.7985518 30.6154322 5.73739595 33.7728985 5.73739595 33.7728985 6.6870339 29.616234 6.6870339"></polygon>
                        <path d="M36.770493,5.10430398 C37.2900761,5.53955471 37.889595,5.77696419 38.6090177,5.77696419 C39.4483441,5.77696419 39.8879913,5.46041821 39.8879913,4.86689449 C39.8879913,4.39207552 39.6082158,4.07552953 39.0486648,3.95682479 C38.7688894,3.91725654 38.4891139,3.87768829 38.2093384,3.83812005 C37.6497874,3.75898355 37.2101402,3.52157406 36.9303647,3.20502808 C36.6505892,2.8884821 36.4907175,2.45323137 36.4907175,1.9784124 C36.4907175,1.38488868 36.6905571,0.94963795 37.0502685,0.593523719 C37.4099798,0.237409487 37.9295629,0.0791364958 38.6090177,0.0395682479 C39.4083762,0.0395682479 40.1277989,0.276977735 40.7273178,0.712228462 L40.1677668,1.54316167 C39.6881517,1.22661568 39.1286007,1.02877445 38.5690497,1.02877445 C38.2493063,1.02877445 38.0094987,1.10791094 37.8096591,1.26618393 C37.6098195,1.42445692 37.4899157,1.66186641 37.4899157,1.9784124 C37.4899157,2.17625363 37.5698515,2.33452663 37.6897553,2.49279962 C37.849627,2.65107261 38.0494667,2.76977735 38.3692101,2.8093456 C38.5290818,2.84891385 38.8088573,2.8884821 39.0886328,2.92805034 C39.6881517,3.00718684 40.1277989,3.24459633 40.4475423,3.60071056 C40.7273178,3.95682479 40.8871895,4.35250727 40.8871895,4.82732624 C40.8472216,6.09351018 40.087831,6.72660214 38.6090177,6.76617039 C37.6497874,6.76617039 36.8104609,6.44962441 36.1310062,5.85610069 L36.770493,5.10430398 Z"></path>
                        <path d="M44.0446557,5.10430398 C44.5642388,5.53955471 45.1637577,5.77696419 45.8831804,5.77696419 C46.7225069,5.77696419 47.1621541,5.46041821 47.1621541,4.86689449 C47.1621541,4.39207552 46.8823786,4.07552953 46.3228276,3.95682479 C46.0430521,3.91725654 45.7632766,3.87768829 45.4835011,3.83812005 C44.9239501,3.75898355 44.4843029,3.52157406 44.2045275,3.20502808 C43.924752,2.8884821 43.7648803,2.45323137 43.7648803,1.9784124 C43.7648803,1.38488868 43.9647199,0.94963795 44.3244312,0.593523719 C44.6841426,0.237409487 45.2037256,0.0791364958 45.8831804,0.0395682479 C46.6825389,0.0395682479 47.4019616,0.276977735 48.0014805,0.712228462 L47.4419296,1.54316167 C46.9623144,1.22661568 46.4027634,1.02877445 45.8432125,1.02877445 C45.5234691,1.02877445 45.2836615,1.10791094 45.0838219,1.26618393 C44.8839822,1.42445692 44.7640784,1.66186641 44.7640784,1.9784124 C44.7640784,2.17625363 44.8440143,2.33452663 44.9639181,2.49279962 C45.1237898,2.65107261 45.3236294,2.76977735 45.6433728,2.8093456 C45.8032445,2.84891385 46.08302,2.8884821 46.3627955,2.92805034 C46.9623144,3.00718684 47.4019616,3.24459633 47.721705,3.60071056 C48.0014805,3.95682479 48.1613522,4.35250727 48.1613522,4.82732624 C48.1213843,6.09351018 47.3619937,6.72660214 45.8831804,6.76617039 C44.9239501,6.76617039 44.0846237,6.44962441 43.4051689,5.85610069 L44.0446557,5.10430398 Z"></path>
                        <polygon points="51.2388826 0.0791364958 52.2380808 0.0791364958 52.2380808 6.6870339 51.2388826 6.6870339"></polygon>
                        <path d="M55.3156112,3.40286932 C55.3156112,2.65107261 55.3555791,2.09711714 55.3955471,1.85970765 C55.435515,1.58272992 55.5154508,1.38488868 55.5953867,1.22661568 C55.7552584,0.910069702 55.995066,0.633091966 56.3547773,0.395682479 C56.7144887,0.158272992 57.1141679,0.0395682479 57.633751,0.0395682479 C58.153334,0.0395682479 58.5929812,0.158272992 58.9127247,0.395682479 C59.272436,0.633091966 59.5122436,0.910069702 59.6321473,1.22661568 C59.7520511,1.38488868 59.831987,1.58272992 59.8719549,1.85970765 C59.9119228,2.13668539 59.9119228,2.65107261 59.9119228,3.40286932 C59.9119228,4.15466603 59.9119228,4.66905325 59.8719549,4.94603099 C59.831987,5.22300872 59.7520511,5.42084996 59.6321473,5.57912295 C59.4722756,5.89566894 59.2324681,6.17264667 58.9127247,6.37048791 C58.5530133,6.6078974 58.153334,6.72660214 57.633751,6.76617039 C57.1141679,6.76617039 56.7144887,6.6078974 56.3547773,6.37048791 C55.995066,6.13307842 55.7552584,5.85610069 55.5953867,5.57912295 C55.5554188,5.46041821 55.5154508,5.38128171 55.4754829,5.30214522 C55.435515,5.22300872 55.3955471,5.10430398 55.3955471,4.94603099 C55.3555791,4.66905325 55.3156112,4.15466603 55.3156112,3.40286932 Z M56.3148094,3.40286932 C56.3148094,4.03596129 56.3547773,4.51078026 56.3947452,4.7086215 C56.4347132,4.94603099 56.514649,5.14387223 56.6345528,5.26257697 C56.7544566,5.38128171 56.8743604,5.49998646 57.0342321,5.57912295 C57.1941038,5.6978277 57.3939434,5.73739595 57.633751,5.73739595 C57.8735585,5.73739595 58.0733982,5.6978277 58.2332699,5.57912295 C58.3931416,5.49998646 58.5130454,5.38128171 58.6329492,5.26257697 C58.7528529,5.10430398 58.8327888,4.94603099 58.9127247,4.7086215 C58.9526926,4.47121201 58.9926605,4.03596129 58.9926605,3.40286932 C58.9926605,2.76977735 58.9526926,2.29495838 58.9127247,2.05754889 C58.8727567,1.8201394 58.7928209,1.66186641 58.6329492,1.50359342 C58.5530133,1.38488868 58.3931416,1.26618393 58.2332699,1.14747919 C58.0733982,1.06834269 57.8735585,1.02877445 57.633751,0.989206198 C57.3939434,0.989206198 57.1941038,1.02877445 57.0342321,1.14747919 C56.8743604,1.22661568 56.7144887,1.34532043 56.6345528,1.50359342 C56.514649,1.66186641 56.4347132,1.8201394 56.3947452,2.05754889 C56.3148094,2.29495838 56.3148094,2.73020911 56.3148094,3.40286932 Z"></path>
                        <polygon points="63.1493249 0.0791364958 64.0685873 0.0791364958 66.9862459 4.787758 66.9862459 4.787758 66.9862459 0.0791364958 67.9854441 0.0791364958 67.9854441 6.6870339 67.0661818 6.6870339 64.1485231 1.9784124 64.1485231 1.9784124 64.1485231 6.6870339 63.1493249 6.6870339"></polygon>
                        <path d="M74.7799917,5.22300872 L72.3419482,5.22300872 L71.8623331,6.6870339 L70.823167,6.6870339 L73.1812747,0.0791364958 L74.0206011,0.0791364958 L76.3787088,6.6870339 L75.2596069,6.6870339 L74.7799917,5.22300872 Z M74.5002163,4.35250727 L73.5809539,1.46402517 L73.5809539,1.46402517 L72.6616916,4.35250727 L74.5002163,4.35250727 Z"></path>
                        <polygon points="79.05656 0.0791364958 80.0557581 0.0791364958 80.0557581 5.73739595 83.2132244 5.73739595 83.2132244 6.6870339 79.05656 6.6870339"></polygon>
                        <path d="M90.0877079,3.40286932 C90.0877079,2.65107261 90.1276758,2.09711714 90.1676437,1.85970765 C90.2076116,1.58272992 90.2875475,1.38488868 90.3674833,1.22661568 C90.527355,0.910069702 90.7671626,0.633091966 91.126874,0.395682479 C91.4865853,0.158272992 91.8862646,0.0395682479 92.4058476,0.0395682479 C92.9254307,0.0395682479 93.3650779,0.158272992 93.6848213,0.395682479 C94.0445326,0.633091966 94.2843402,0.910069702 94.404244,1.22661568 C94.5241478,1.38488868 94.6040836,1.58272992 94.6440515,1.85970765 C94.6840195,2.13668539 94.6840195,2.65107261 94.6840195,3.40286932 C94.6840195,4.15466603 94.6840195,4.66905325 94.6440515,4.94603099 C94.6040836,5.22300872 94.5241478,5.42084996 94.404244,5.57912295 C94.2443723,5.89566894 94.0045647,6.17264667 93.6848213,6.37048791 C93.32511,6.6078974 92.9254307,6.72660214 92.4058476,6.76617039 C91.8862646,6.76617039 91.4865853,6.6078974 91.126874,6.37048791 C90.7671626,6.13307842 90.527355,5.85610069 90.3674833,5.57912295 C90.3275154,5.46041821 90.2875475,5.38128171 90.2475796,5.30214522 C90.2076116,5.22300872 90.1676437,5.10430398 90.1676437,4.94603099 C90.0877079,4.66905325 90.0877079,4.15466603 90.0877079,3.40286932 Z M91.0469381,3.40286932 C91.0469381,4.03596129 91.086906,4.51078026 91.126874,4.7086215 C91.1668419,4.94603099 91.2467777,5.14387223 91.3666815,5.26257697 C91.4865853,5.38128171 91.6064891,5.49998646 91.7663608,5.57912295 C91.9262325,5.6978277 92.1260721,5.73739595 92.3658797,5.73739595 C92.6056873,5.73739595 92.8055269,5.6978277 92.9653986,5.57912295 C93.1252703,5.49998646 93.2451741,5.38128171 93.3650779,5.26257697 C93.4849817,5.10430398 93.5649175,4.94603099 93.6448534,4.7086215 C93.6848213,4.47121201 93.7247892,4.03596129 93.7247892,3.40286932 C93.7247892,2.76977735 93.6848213,2.29495838 93.6448534,2.05754889 C93.6048854,1.8201394 93.5249496,1.66186641 93.3650779,1.50359342 C93.285142,1.38488868 93.1252703,1.26618393 92.9653986,1.14747919 C92.8055269,1.06834269 92.6056873,1.02877445 92.3658797,0.989206198 C92.1260721,0.989206198 91.9262325,1.02877445 91.7663608,1.14747919 C91.6064891,1.22661568 91.4466174,1.34532043 91.3666815,1.50359342 C91.2467777,1.66186641 91.1668419,1.8201394 91.126874,2.05754889 C91.086906,2.29495838 91.0469381,2.73020911 91.0469381,3.40286932 Z"></path>
                        <path d="M97.7615499,0.0791364958 L98.760748,0.0791364958 L98.760748,4.35250727 C98.760748,4.787758 98.8806518,5.14387223 99.1604273,5.38128171 C99.4002349,5.6186912 99.7199783,5.73739595 100.07969,5.73739595 C100.439401,5.73739595 100.759144,5.6186912 101.03892,5.38128171 C101.278727,5.14387223 101.398631,4.787758 101.398631,4.35250727 L101.398631,0.0791364958 L102.397829,0.0791364958 L102.397829,4.47121201 C102.397829,5.18344048 102.158022,5.73739595 101.718375,6.13307842 C101.278727,6.56832915 100.759144,6.76617039 100.07969,6.76617039 C99.4402028,6.76617039 98.8806518,6.5287609 98.4410046,6.13307842 C98.0013574,5.73739595 97.7615499,5.18344048 97.7615499,4.47121201 L97.7615499,0.0791364958 L97.7615499,0.0791364958 Z"></path>
                        <polygon points="106.794301 0.989206198 105.035713 0.989206198 105.035713 0.118704744 109.552088 0.118704744 109.552088 0.989206198 107.7935 0.989206198 107.7935 6.72660214 106.794301 6.72660214 106.794301 0.989206198"></polygon>
                        <path d="M112.269907,0.0791364958 L114.548079,0.0791364958 C115.427374,0.0791364958 116.066861,0.474818975 116.506508,1.18704744 C116.666379,1.42445692 116.746315,1.70143466 116.786283,1.9784124 C116.826251,2.25539013 116.826251,2.73020911 116.826251,3.40286932 C116.826251,4.11509778 116.786283,4.629485 116.746315,4.90646274 C116.706347,5.06473573 116.706347,5.18344048 116.626411,5.30214522 C116.586444,5.42084996 116.506508,5.53955471 116.426572,5.65825945 C116.226732,5.97480543 115.986925,6.21221492 115.627213,6.44962441 C115.30747,6.6870339 114.867823,6.76617039 114.388208,6.76617039 L112.189972,6.76617039 L112.189972,0.0791364958 L112.269907,0.0791364958 L112.269907,0.0791364958 Z M113.269106,5.77696419 L114.428175,5.77696419 C114.987726,5.77696419 115.387406,5.57912295 115.627213,5.18344048 C115.747117,5.02516748 115.787085,4.86689449 115.827053,4.629485 C115.867021,4.43164377 115.867021,3.99639304 115.867021,3.40286932 C115.867021,2.8093456 115.867021,2.41366312 115.827053,2.17625363 C115.787085,1.93884415 115.707149,1.74100291 115.587245,1.58272992 C115.30747,1.18704744 114.947759,1.02877445 114.428175,1.02877445 L113.269106,1.02877445 L113.269106,5.77696419 Z"></path>
                        <path d="M119.863814,3.40286932 C119.863814,2.65107261 119.903782,2.09711714 119.943749,1.85970765 C119.983717,1.58272992 120.063653,1.38488868 120.143589,1.22661568 C120.303461,0.910069702 120.543268,0.633091966 120.90298,0.395682479 C121.262691,0.158272992 121.66237,0.0395682479 122.181953,0.0395682479 C122.701536,0.0395682479 123.141184,0.158272992 123.460927,0.395682479 C123.820638,0.633091966 124.060446,0.910069702 124.18035,1.22661568 C124.300254,1.38488868 124.380189,1.58272992 124.420157,1.85970765 C124.460125,2.13668539 124.460125,2.65107261 124.460125,3.40286932 C124.460125,4.15466603 124.460125,4.66905325 124.420157,4.94603099 C124.380189,5.22300872 124.300254,5.42084996 124.18035,5.57912295 C124.020478,5.89566894 123.78067,6.17264667 123.460927,6.37048791 C123.101216,6.6078974 122.701536,6.72660214 122.181953,6.76617039 C121.66237,6.76617039 121.262691,6.6078974 120.90298,6.37048791 C120.543268,6.13307842 120.303461,5.85610069 120.143589,5.57912295 C120.103621,5.46041821 120.063653,5.38128171 120.023685,5.30214522 C119.983717,5.22300872 119.943749,5.10430398 119.943749,4.94603099 C119.863814,4.66905325 119.863814,4.15466603 119.863814,3.40286932 Z M120.823044,3.40286932 C120.823044,4.03596129 120.863012,4.51078026 120.90298,4.7086215 C120.942948,4.94603099 121.022883,5.14387223 121.142787,5.26257697 C121.262691,5.38128171 121.382595,5.49998646 121.542467,5.57912295 C121.702338,5.6978277 121.902178,5.73739595 122.141985,5.73739595 C122.381793,5.73739595 122.581633,5.6978277 122.741504,5.57912295 C122.901376,5.49998646 123.02128,5.38128171 123.141184,5.26257697 C123.261087,5.10430398 123.341023,4.94603099 123.420959,4.7086215 C123.460927,4.47121201 123.500895,4.03596129 123.500895,3.40286932 C123.500895,2.76977735 123.460927,2.29495838 123.420959,2.05754889 C123.380991,1.8201394 123.301055,1.66186641 123.141184,1.50359342 C123.061248,1.38488868 122.901376,1.26618393 122.741504,1.14747919 C122.581633,1.06834269 122.381793,1.02877445 122.141985,0.989206198 C121.902178,0.989206198 121.702338,1.02877445 121.542467,1.14747919 C121.382595,1.22661568 121.222723,1.34532043 121.142787,1.50359342 C121.022883,1.66186641 120.942948,1.8201394 120.90298,2.05754889 C120.863012,2.29495838 120.823044,2.73020911 120.823044,3.40286932 Z"></path>
                        <path d="M127.45772,3.40286932 C127.45772,2.65107261 127.497688,2.09711714 127.537656,1.85970765 C127.577624,1.58272992 127.657559,1.38488868 127.737495,1.22661568 C127.897367,0.910069702 128.137175,0.633091966 128.496886,0.395682479 C128.856597,0.158272992 129.256276,0.0395682479 129.77586,0.0395682479 C130.295443,0.0395682479 130.73509,0.158272992 131.054833,0.395682479 C131.414545,0.633091966 131.654352,0.910069702 131.774256,1.22661568 C131.89416,1.38488868 131.974096,1.58272992 132.014063,1.85970765 C132.054031,2.13668539 132.054031,2.65107261 132.054031,3.40286932 C132.054031,4.15466603 132.054031,4.66905325 132.014063,4.94603099 C131.974096,5.22300872 131.89416,5.42084996 131.774256,5.57912295 C131.614384,5.89566894 131.374577,6.17264667 131.054833,6.37048791 C130.695122,6.6078974 130.295443,6.72660214 129.77586,6.76617039 C129.256276,6.76617039 128.856597,6.6078974 128.496886,6.37048791 C128.137175,6.13307842 127.897367,5.85610069 127.737495,5.57912295 C127.697527,5.46041821 127.657559,5.38128171 127.617591,5.30214522 C127.577624,5.22300872 127.537656,5.10430398 127.537656,4.94603099 C127.45772,4.66905325 127.45772,4.15466603 127.45772,3.40286932 Z M128.41695,3.40286932 C128.41695,4.03596129 128.456918,4.51078026 128.496886,4.7086215 C128.536854,4.94603099 128.61679,5.14387223 128.736693,5.26257697 C128.856597,5.38128171 128.976501,5.49998646 129.136373,5.57912295 C129.296244,5.6978277 129.496084,5.73739595 129.735892,5.73739595 C129.975699,5.73739595 130.175539,5.6978277 130.335411,5.57912295 C130.495282,5.49998646 130.615186,5.38128171 130.73509,5.26257697 C130.854994,5.10430398 130.934929,4.94603099 131.014865,4.7086215 C131.054833,4.47121201 131.094801,4.03596129 131.094801,3.40286932 C131.094801,2.76977735 131.054833,2.29495838 131.014865,2.05754889 C130.974897,1.8201394 130.894961,1.66186641 130.73509,1.50359342 C130.655154,1.38488868 130.495282,1.26618393 130.335411,1.14747919 C130.175539,1.06834269 129.975699,1.02877445 129.735892,0.989206198 C129.496084,0.989206198 129.296244,1.02877445 129.136373,1.14747919 C128.976501,1.22661568 128.816629,1.34532043 128.736693,1.50359342 C128.61679,1.66186641 128.536854,1.8201394 128.496886,2.05754889 C128.456918,2.29495838 128.41695,2.73020911 128.41695,3.40286932 Z"></path>
                        <path d="M135.291433,0.0791364958 L137.809413,0.0791364958 C138.328996,0.0791364958 138.808611,0.237409487 139.128354,0.514387223 C139.528034,0.830933206 139.767841,1.30575218 139.767841,1.93884415 C139.767841,2.84891385 139.328194,3.44243757 138.528836,3.75898355 L140.047617,6.6870339 L138.888547,6.6870339 L137.529637,3.83812005 L136.290632,3.83812005 L136.290632,6.6870339 L135.291433,6.6870339 L135.291433,0.0791364958 L135.291433,0.0791364958 Z M136.250664,2.96761859 L137.729477,2.96761859 C138.089188,2.96761859 138.368964,2.84891385 138.568804,2.65107261 C138.768643,2.45323137 138.848579,2.21582188 138.848579,1.93884415 C138.848579,1.58272992 138.728675,1.34532043 138.528836,1.18704744 C138.368964,1.06834269 138.129156,0.989206198 137.809413,0.989206198 L136.250664,0.989206198 L136.250664,2.96761859 L136.250664,2.96761859 Z"></path>
                        <polygon points="147.002036 0.0791364958 148.001234 0.0791364958 148.001234 5.73739595 151.158701 5.73739595 151.158701 6.6870339 147.002036 6.6870339"></polygon>
                        <polygon points="154.116327 0.0791364958 155.115525 0.0791364958 155.115525 6.6870339 154.116327 6.6870339"></polygon>
                        <path d="M160.511196,3.04675509 L162.829335,3.04675509 L162.829335,4.39207552 C162.829335,5.06473573 162.589528,5.6186912 162.149881,6.05394193 C161.710233,6.48919266 161.150682,6.72660214 160.511196,6.72660214 C159.991612,6.72660214 159.591933,6.56832915 159.232222,6.33091966 C158.872511,6.09351018 158.632703,5.81653244 158.472831,5.53955471 C158.432863,5.42084996 158.392895,5.34171347 158.352927,5.26257697 C158.31296,5.18344048 158.272992,5.06473573 158.272992,4.90646274 C158.233024,4.629485 158.193056,4.11509778 158.193056,3.36330107 C158.193056,2.61150436 158.233024,2.09711714 158.272992,1.8201394 C158.31296,1.54316167 158.392895,1.34532043 158.472831,1.18704744 C158.632703,0.870501454 158.872511,0.593523719 159.232222,0.356114231 C159.591933,0.118704744 159.991612,0 160.511196,0 C161.150682,0 161.630297,0.19784124 162.029977,0.553955471 C162.429656,0.910069702 162.669464,1.38488868 162.789367,1.93884415 L161.750201,1.93884415 C161.670265,1.66186641 161.510394,1.42445692 161.310554,1.26618393 C161.110714,1.06834269 160.830939,0.989206198 160.511196,0.989206198 C160.271388,0.989206198 160.071548,1.02877445 159.911677,1.14747919 C159.751805,1.22661568 159.591933,1.34532043 159.511997,1.50359342 C159.392094,1.66186641 159.312158,1.8201394 159.27219,2.05754889 C159.232222,2.29495838 159.192254,2.73020911 159.192254,3.40286932 C159.192254,4.07552953 159.232222,4.51078026 159.27219,4.7086215 C159.312158,4.94603099 159.392094,5.14387223 159.511997,5.26257697 C159.631901,5.38128171 159.751805,5.49998646 159.911677,5.57912295 C160.071548,5.6978277 160.271388,5.73739595 160.511196,5.73739595 C160.910875,5.73739595 161.19065,5.6186912 161.470426,5.34171347 C161.710233,5.10430398 161.830137,4.74818975 161.870105,4.35250727 L161.870105,3.99639304 L160.551163,3.99639304 L160.551163,3.04675509 L160.511196,3.04675509 L160.511196,3.04675509 Z"></path>
                        <polygon points="169.583915 3.7985518 167.025968 3.7985518 167.025968 6.6870339 166.026769 6.6870339 166.026769 0.0791364958 167.025968 0.0791364958 167.025968 2.92805034 169.583915 2.92805034 169.583915 0.0791364958 170.583113 0.0791364958 170.583113 6.6870339 169.583915 6.6870339"></polygon>
                        <polygon points="175.099489 0.989206198 173.3409 0.989206198 173.3409 0.118704744 177.857276 0.118704744 177.857276 0.989206198 176.098687 0.989206198 176.098687 6.72660214 175.099489 6.72660214"></polygon>
                        <polygon points="180.575095 0.0791364958 181.574293 0.0791364958 181.574293 6.6870339 180.575095 6.6870339"></polygon>
                        <polygon points="184.851663 0.0791364958 185.770926 0.0791364958 188.688584 4.787758 188.688584 4.787758 188.688584 0.0791364958 189.687782 0.0791364958 189.687782 6.6870339 188.76852 6.6870339 185.850861 1.9784124 185.850861 1.9784124 185.850861 6.6870339 184.851663 6.6870339"></polygon>
                        <path d="M195.283292,3.04675509 L197.601432,3.04675509 L197.601432,4.39207552 C197.601432,5.06473573 197.361624,5.6186912 196.921977,6.05394193 C196.48233,6.48919266 195.922779,6.72660214 195.283292,6.72660214 C194.763709,6.72660214 194.36403,6.56832915 194.004319,6.33091966 C193.644607,6.09351018 193.4048,5.81653244 193.244928,5.53955471 C193.20496,5.42084996 193.164992,5.34171347 193.125024,5.26257697 C193.085056,5.18344048 193.045088,5.06473573 193.045088,4.90646274 C193.00512,4.629485 192.965152,4.11509778 192.965152,3.36330107 C192.965152,2.61150436 193.00512,2.09711714 193.045088,1.8201394 C193.085056,1.54316167 193.164992,1.34532043 193.244928,1.18704744 C193.4048,0.870501454 193.644607,0.593523719 194.004319,0.356114231 C194.36403,0.118704744 194.763709,0 195.283292,0 C195.922779,0 196.402394,0.19784124 196.802073,0.553955471 C197.201753,0.910069702 197.44156,1.38488868 197.561464,1.93884415 L196.522298,1.93884415 C196.442362,1.66186641 196.28249,1.42445692 196.082651,1.26618393 C195.882811,1.06834269 195.603036,0.989206198 195.283292,0.989206198 C195.043485,0.989206198 194.843645,1.02877445 194.683773,1.14747919 C194.523902,1.22661568 194.36403,1.34532043 194.284094,1.50359342 C194.16419,1.66186641 194.084254,1.8201394 194.044286,2.05754889 C194.004319,2.29495838 193.964351,2.73020911 193.964351,3.40286932 C193.964351,4.07552953 194.004319,4.51078026 194.044286,4.7086215 C194.084254,4.94603099 194.16419,5.14387223 194.284094,5.26257697 C194.403998,5.38128171 194.523902,5.49998646 194.683773,5.57912295 C194.843645,5.6978277 195.043485,5.73739595 195.283292,5.73739595 C195.682971,5.73739595 195.962747,5.6186912 196.242522,5.34171347 C196.48233,5.10430398 196.602234,4.74818975 196.642202,4.35250727 L196.642202,3.99639304 L195.32326,3.99639304 L195.32326,3.04675509 L195.283292,3.04675509 L195.283292,3.04675509 Z"></path>
                    </g>
                </g>
            </g>
        </g>
    </g>
</svg>