<?xml version="1.0" encoding="UTF-8"?>
<svg width="174px" height="44px" viewBox="0 0 174 44" version="1.1" xmlns="http://www.w3.org/2000/svg" xmlns:xlink="http://www.w3.org/1999/xlink">
    <!-- Generator: Sketch 61.2 (89653) - https://sketch.com -->
    <title>logo nudetuin</title>
    <desc>Created with Sketch.</desc>
    <defs>
        <polygon id="path-1" points="0 43.4761905 173.413172 43.4761905 173.413172 0.0274222615 0 0.0274222615"></polygon>
    </defs>
    <g id="Symbols" stroke="none" stroke-width="1" fill="none" fill-rule="evenodd">
        <g id="Menu" transform="translate(-390.000000, -10.000000)">
            <g id="Topbar">
                <g>
                    <g id="logo-nudetuin-header" transform="translate(390.000000, 10.000000)">
                        <g id="Group-13" stroke-width="1" transform="translate(0.000000, 0.055842)">
                            <polygon id="Fill-4" fill="#FFFFFF" points="0.280098824 27.3466774 8.34838763 27.3466774 8.34838763 12.34647 18.7462143 27.3466774 26.8334735 27.3466774 26.8334735 0.0274222615 18.7462143 0.0274222615 18.7462143 15.1417739 8.2915544 0.0274222615 0.280098824 0.0274222615"></polygon>
                            <path d="M75.4204901,27.0112195 L91.8223415,27.0112195 L91.8223415,22.6878733 L81.4432511,22.6878733 L81.4432511,18.9235726 L90.7996557,18.9235726 L90.7996557,15.0287666 L81.4432511,15.0287666 L81.4432511,11.9726055 L91.5381754,11.9726055 L91.5381754,7.8914509 L75.4204901,7.8914509 L75.4204901,27.0112195 Z M61.8943377,12.2148738 C63.446244,12.2148738 64.5574585,12.5890302 65.2277471,13.337343 C65.8977235,14.0856558 66.2330239,15.4736678 66.2330239,17.5008412 C66.2330239,19.0324167 66.0829779,20.1395233 65.7831983,20.8226219 C65.4834186,21.5057204 65.0691137,21.9841121 64.5399714,22.2581043 C64.010829,22.5324037 63.1200774,22.6692846 61.8680289,22.6692846 L60.3995769,22.6692846 L60.3995769,12.2148738 L61.8943377,12.2148738 Z M54.3957083,27.0112195 L63.3154026,27.0112195 C64.3843045,27.0112195 65.5771778,26.8373915 66.8937883,26.4894284 C67.8567524,26.2373279 68.7581992,25.7309762 69.5974262,24.9700661 C70.4367312,24.20954 71.0928115,23.266122 71.5656671,22.1401962 C72.0382885,21.0141936 72.2747553,19.4296171 72.2747553,17.3861593 C72.2747553,16.0819504 72.1154973,14.8473341 71.7973718,13.68208 C71.4792462,12.5170564 70.9667323,11.4953659 70.2600642,10.6171622 C69.553318,9.73895856 68.6587411,9.06523123 67.5762554,8.59582664 C66.4936917,8.12642204 65.0735636,7.8914509 63.3154026,7.8914509 L54.3957083,7.8914509 L54.3957083,27.0112195 Z M44.3731527,19.5664211 C44.3731527,20.6275167 44.0780571,21.4471888 43.4882562,22.0254375 C42.8982211,22.6036862 42.0843662,22.8928874 41.0462229,22.8928874 C39.999258,22.8928874 39.1810313,22.5993847 38.5912304,22.0123025 C38.0011172,21.4252971 37.706412,20.6100033 37.706412,19.5664211 L37.706412,7.8914509 L31.7214357,7.8914509 L31.7214357,19.2881274 C31.7214357,20.227167 31.9070025,21.3050847 32.2786824,22.5219571 C32.5083574,23.2783353 32.935075,24.0129754 33.5586011,24.7258006 C34.1818149,25.4386257 34.8695907,25.9886072 35.6212258,26.375361 C36.3729389,26.7622683 37.3080329,27.0205906 38.4266638,27.1513265 C39.5452948,27.2815246 40.5775049,27.3466621 41.5239187,27.3466621 C43.1598257,27.3466621 44.5612957,27.1335058 45.728797,26.7078079 C46.5686485,26.4035514 47.3711836,25.8753848 48.1361683,25.1235386 C48.9008406,24.3717692 49.4625372,23.4935655 49.8206334,22.489542 C50.1787296,21.4855954 50.3580509,20.4184315 50.3580509,19.2881274 L50.3580509,7.8914509 L44.3731527,7.8914509 L44.3731527,19.5664211 Z" id="Fill-6" fill="#FFFFFF"></path>
                            <path d="M165.777362,6.4164328 L173.332746,6.4164328 L173.332746,4.84314776 L168.727537,4.84314776 L168.727537,0.0274299428 L165.777362,0.0274299428 L165.777362,6.4164328 Z M154.685514,6.4164328 L157.460037,6.4164328 L157.460037,2.90845729 L161.036315,6.4164328 L163.817162,6.4164328 L163.817162,0.0274299428 L161.036315,0.0274299428 L161.036315,3.5621364 L157.44052,0.0274299428 L154.685514,0.0274299428 L154.685514,6.4164328 Z" id="Fill-8" fill="#FFFFFF"></path>
                            <mask id="mask-2" fill="white">
                                <use xlink:href="#path-1"></use>
                            </mask>
                            <g id="Clip-11"></g>
                            <polygon id="Fill-10" fill="#FFFFFF" mask="url(#mask-2)" points="144.373577 6.41642512 150.476904 6.41642512 150.476904 0.0274222615 144.373577 0.0274222615"></polygon>
                            <path d="M167.891433,40.7332269 C168.359839,41.0429372 169.14598,41.1978691 170.249856,41.1978691 C171.030532,41.1978691 171.648047,41.1018528 172.10162,40.909897 C172.554412,40.7179411 172.8862,40.4596188 173.096982,40.1353909 C173.307765,39.8110094 173.413156,39.4772566 173.413156,39.1342863 C173.413156,38.7950799 173.31323,38.4838334 173.114157,38.2003164 C172.915085,37.9171066 172.627796,37.6989575 172.252212,37.5461764 C171.876785,37.3932416 171.303769,37.2739509 170.534022,37.1882275 C170.025802,37.1285438 169.695498,37.0614092 169.544125,36.9869773 C169.392674,36.9124686 169.316167,36.8025492 169.316167,36.6572188 C169.316167,36.5267135 169.376279,36.415949 169.495723,36.3246183 C169.615166,36.2333644 169.805651,36.1875838 170.067178,36.1875838 C170.325582,36.1875838 170.545732,36.2474212 170.72763,36.3667119 C170.860345,36.4562759 170.954807,36.5963061 171.011796,36.786572 L173.207838,36.5739535 C173.056387,36.1858171 172.865902,35.8779504 172.636305,35.6501997 C172.406864,35.4226026 172.120356,35.254766 171.776859,35.1464596 C171.434142,35.0381532 170.901799,34.9840768 170.181156,34.9840768 C169.498845,34.9840768 168.953855,35.0540535 168.548763,35.1938533 C168.142811,35.3336531 167.824295,35.5451962 167.592434,35.8284828 C167.361354,36.111923 167.245814,36.4492859 167.245814,36.8407252 C167.245814,37.1986741 167.352767,37.5175251 167.566672,37.7970478 C167.781358,38.0767241 168.045226,38.2752859 168.357497,38.3925794 C168.670548,38.5101802 169.229512,38.6378435 170.033531,38.775723 C170.572275,38.8688972 170.904063,38.9471697 171.028893,39.0103869 C171.203062,39.0998741 171.290497,39.2266924 171.290497,39.3906115 C171.290497,39.535865 171.224062,39.6569224 171.091425,39.7538604 C170.921316,39.884289 170.680009,39.9495033 170.369299,39.9495033 C170.084353,39.9495033 169.857176,39.8917399 169.686208,39.7759058 C169.51524,39.6603021 169.382525,39.4680391 169.288063,39.199347 L166.989752,39.4121191 C167.122467,39.9830706 167.423027,40.4235167 167.891433,40.7332269 L167.891433,40.7332269 Z M163.746823,38.6060429 C163.746823,38.8896367 163.700061,39.1201527 163.607082,39.2973604 C163.514182,39.4745682 163.356485,39.6247377 163.134773,39.7480226 C162.913061,39.8710772 162.673393,39.9326812 162.414989,39.9326812 C162.168218,39.9326812 161.981714,39.8758396 161.854464,39.7619258 C161.727994,39.6481657 161.663979,39.5016832 161.663979,39.3225551 C161.663979,39.1657797 161.728853,39.0257495 161.857587,38.902695 C161.982573,38.7832506 162.280713,38.661886 162.75068,38.5388315 C163.095739,38.4529545 163.428307,38.3540193 163.746823,38.2421027 L163.746823,38.6060429 Z M162.096473,36.5179568 C162.2861,36.3985125 162.570344,36.3388287 162.949753,36.3388287 C163.245629,36.3388287 163.452508,36.3948254 163.57039,36.5067421 C163.687492,36.6187355 163.746823,36.8146088 163.746823,37.0945924 C163.457973,37.206509 163.185517,37.2970716 162.927113,37.3660497 C162.669412,37.4351047 162.105842,37.5555476 161.23773,37.7270711 C160.513262,37.8690216 160.015893,38.0853272 159.746638,38.3764487 C159.477305,38.6674934 159.343028,39.0388845 159.343028,39.4903917 C159.343028,39.9719327 159.52961,40.3768143 159.903554,40.705267 C160.276717,41.0336428 160.823971,41.1978691 161.544535,41.1978691 C162.087105,41.1978691 162.563318,41.1156791 162.972392,40.9515296 C163.272172,40.8283215 163.574216,40.6231538 163.877196,40.3357194 C163.903739,40.5074733 163.930282,40.6333699 163.956825,40.7135628 C163.98329,40.7939092 164.040357,40.9105115 164.127793,41.0635231 L166.301196,41.0635231 C166.17941,40.8171836 166.101343,40.6147812 166.064651,40.4561622 C166.02874,40.2974664 166.010784,40.078242 166.010784,39.798412 L166.010784,37.1728649 C166.010784,36.8930349 165.953795,36.5991482 165.840597,36.2912814 C165.726618,35.9832611 165.571263,35.745371 165.373752,35.5775345 C165.092709,35.3349589 164.742185,35.1754182 164.321401,35.0988355 C163.899836,35.0223297 163.342433,34.9840768 162.648412,34.9840768 C162.215917,34.9840768 161.813869,35.0158006 161.442267,35.079325 C161.070665,35.1427726 160.778692,35.2323366 160.566348,35.3480171 C160.270472,35.5084028 160.043295,35.6978238 159.886379,35.9162033 C159.728604,36.134506 159.608458,36.4339233 159.524926,36.8146088 L161.738143,37.044203 C161.829482,36.786572 161.948926,36.6112846 162.096473,36.5179568 L162.096473,36.5179568 Z M154.279562,41.0635231 L156.6059,41.0635231 L156.6059,39.0705315 C156.6059,38.1189713 156.726124,37.4695937 156.965089,37.1224755 C157.131373,36.8761361 157.367059,36.7530815 157.670039,36.7530815 C157.829219,36.7530815 158.045545,36.8090783 158.318781,36.9209181 L159.03552,35.2975509 C158.629412,35.0886194 158.256327,34.9840768 157.915172,34.9840768 C157.588849,34.9840768 157.314832,35.0634247 157.09312,35.2220437 C156.870627,35.3806626 156.655941,35.6708624 156.446642,36.0924892 L156.446642,35.1184229 L154.279562,35.1184229 L154.279562,41.0635231 Z M148.564232,36.9517969 C148.740587,36.7409451 148.977209,36.6354808 149.273086,36.6354808 C149.568962,36.6354808 149.818778,36.7502395 150.024096,36.9798337 C150.228633,37.2093511 150.330902,37.540569 150.330902,37.9733338 C150.330902,38.4064058 150.233318,38.730096 150.038148,38.9447117 C149.842199,39.1593274 149.60097,39.2664816 149.3129,39.2664816 C149.009217,39.2664816 148.764085,39.1630144 148.578284,38.9557728 C148.392483,38.7487616 148.299583,38.4305251 148.299583,38.0014473 C148.299583,37.5124554 148.387799,37.1627256 148.564232,36.9517969 L148.564232,36.9517969 Z M150.479231,35.9973179 C150.21302,35.6353747 149.928073,35.375977 149.622829,35.2192016 C149.317584,35.062503 148.929588,34.9840768 148.45884,34.9840768 C147.723443,34.9840768 147.127788,35.2266525 146.672653,35.7118805 C146.217519,36.196955 145.989562,36.9024061 145.989562,37.8279267 C145.989562,38.6377667 146.165994,39.288911 146.51886,39.7815131 C147.016151,40.4756727 147.668015,40.8227909 148.476015,40.8227909 C148.889774,40.8227909 149.274647,40.7294631 149.631416,40.5428074 C149.858593,40.4235167 150.08655,40.2313304 150.313727,39.9663254 L150.313727,40.8674961 C150.313727,41.3042552 150.231756,41.6102016 150.066253,41.7855658 C149.90153,41.96093 149.651636,42.0487273 149.318365,42.0487273 C149.059961,42.0487273 148.846056,41.9908871 148.675088,41.8751298 C148.557986,41.7968573 148.470551,41.6549836 148.413561,41.4496623 L146.165994,41.1978691 C146.158968,41.3246107 146.155065,41.4254662 146.155065,41.5000517 C146.155065,42.1009602 146.381461,42.580581 146.835034,42.9388371 C147.287826,43.2970932 148.121588,43.4762212 149.33554,43.4762212 C149.8664,43.4762212 150.337147,43.4295189 150.749345,43.3362678 C151.160683,43.2429399 151.500355,43.0917718 151.767346,42.8827635 C152.035196,42.673832 152.249024,42.4004543 152.410624,42.0627841 C152.571443,41.7248835 152.651852,41.3693927 152.651852,40.9963116 L152.646388,40.7332269 L152.646388,35.1184229 L150.479231,35.1184229 L150.479231,35.9973179 Z M141.574838,34.0268325 L141.574838,35.1184229 L140.721558,35.1184229 L140.721558,36.786572 L141.574838,36.786572 L141.574838,38.8776539 C141.574838,39.5410883 141.640414,40.0210163 141.771568,40.317361 C141.901941,40.6135522 142.104136,40.8343897 142.377373,40.9797968 C142.650609,41.125204 143.075297,41.1978691 143.651436,41.1978691 C144.148727,41.1978691 144.68349,41.1361882 145.255726,41.0131337 L145.085538,39.4403864 C144.777952,39.5372476 144.539065,39.5856398 144.368097,39.5856398 C144.178393,39.5856398 144.045678,39.5222691 143.969952,39.3956812 C143.92077,39.3137984 143.896569,39.1461923 143.896569,38.8929397 L143.896569,36.786572 L145.170632,36.786572 L145.170632,35.1184229 L143.896569,35.1184229 L143.896569,32.8568928 L141.574838,34.0268325 Z M134.47771,40.7332269 C134.946116,41.0429372 135.732257,41.1978691 136.835274,41.1978691 C137.616809,41.1978691 138.234246,41.1018528 138.687897,40.909897 C139.140689,40.7179411 139.472476,40.4596188 139.683259,40.1353909 C139.894042,39.8110094 139.998652,39.4772566 139.998652,39.1342863 C139.998652,38.7950799 139.899428,38.4838334 139.700434,38.2003164 C139.501361,37.9171066 139.214073,37.6989575 138.838567,37.5461764 C138.463062,37.3932416 137.890046,37.2739509 137.120299,37.1882275 C136.612079,37.1285438 136.281853,37.0614092 136.130401,36.9869773 C135.97817,36.9124686 135.902444,36.8025492 135.902444,36.6572188 C135.902444,36.5267135 135.962556,36.415949 136.082,36.3246183 C136.201443,36.2333644 136.391928,36.1875838 136.653376,36.1875838 C136.911858,36.1875838 137.131228,36.2474212 137.313907,36.3667119 C137.446622,36.4562759 137.541083,36.5963061 137.598073,36.786572 L139.794115,36.5739535 C139.642664,36.1858171 139.452179,35.8779504 139.22266,35.6501997 C138.993141,35.4226026 138.706633,35.254766 138.363136,35.1464596 C138.019638,35.0381532 137.487997,34.9840768 136.767433,34.9840768 C136.084342,34.9840768 135.54021,35.0540535 135.134259,35.1938533 C134.728307,35.3336531 134.409791,35.5451962 134.178711,35.8284828 C133.947631,36.111923 133.83131,36.4492859 133.83131,36.8407252 C133.83131,37.1986741 133.939043,37.5175251 134.152949,37.7970478 C134.367635,38.0767241 134.630722,38.2752859 134.943774,38.3925794 C135.256825,38.5101802 135.815008,38.6378435 136.619885,38.775723 C137.157771,38.8688972 137.490339,38.9471697 137.615248,39.0103869 C137.789338,39.0998741 137.876696,39.2266924 137.876696,39.3906115 C137.876696,39.535865 137.810417,39.6569224 137.677702,39.7538604 C137.506734,39.884289 137.266285,39.9495033 136.954796,39.9495033 C136.670629,39.9495033 136.443453,39.8917399 136.272485,39.7759058 C136.101516,39.6603021 135.968802,39.4680391 135.87434,39.199347 L133.575951,39.4121191 C133.708744,39.9830706 134.009304,40.4235167 134.47771,40.7332269 L134.47771,40.7332269 Z M126.213471,41.0635231 L128.528957,41.0635231 L128.528957,38.2085354 C128.528957,37.6674642 128.616393,37.292386 128.791264,37.0833009 C128.965355,36.8743694 129.192532,36.7698268 129.473575,36.7698268 C129.728076,36.7698268 129.924806,36.8473312 130.065328,37.0021863 C130.20585,37.1570414 130.27611,37.4212015 130.27611,37.7942057 L130.27611,41.0635231 L132.602526,41.0635231 L132.602526,37.2847815 C132.602526,36.5011347 132.421409,35.9217338 132.059175,35.5467325 C131.696941,35.1716543 131.195747,34.9840768 130.554812,34.9840768 C130.080161,34.9840768 129.678112,35.0690321 129.348667,35.2388657 C129.018441,35.4086994 128.692118,35.6912946 128.369699,36.0869587 L128.369699,35.1184229 L126.213471,35.1184229 L126.213471,41.0635231 Z M124.808254,35.1184229 L122.492768,35.1184229 L122.492768,37.9790179 C122.492768,38.5200891 122.404552,38.8951673 122.228119,39.1042524 C122.051686,39.3132607 121.82529,39.4177265 121.54815,39.4177265 C121.29443,39.4177265 121.096919,39.3393772 120.956398,39.1826017 C120.815876,39.0257495 120.746396,38.7608212 120.746396,38.3876634 L120.746396,35.1184229 L118.4192,35.1184229 L118.4192,38.902695 C118.4192,39.6826547 118.600317,40.2602121 118.962551,40.6352903 C119.324784,41.0102916 119.824417,41.1978691 120.461449,41.1978691 C120.939223,41.1978691 121.342832,41.1139124 121.670638,40.9459223 C121.9986,40.7780089 122.324142,40.4961818 122.646484,40.1006714 L122.646484,41.0635231 L124.808254,41.0635231 L124.808254,35.1184229 Z M109.202458,41.0635231 L111.779549,41.0635231 L111.779549,39.0609299 L113.111382,37.688511 L114.869465,41.0635231 L118.043617,41.0635231 L114.86322,35.9544562 L117.907076,32.8568928 L114.479127,32.8568928 L111.779549,35.9581432 L111.779549,32.8568928 L109.202458,32.8568928 L109.202458,41.0635231 Z M99.9343482,39.2609511 C99.4183212,39.578189 98.9538189,39.7367311 98.5400605,39.7367311 C98.1575291,39.7367311 97.8460393,39.6304219 97.6071524,39.4177265 C97.3682655,39.2049543 97.2487439,38.9623787 97.2487439,38.6899228 C97.2487439,38.5145586 97.3011273,38.3484119 97.4049572,38.1917901 C97.5095679,38.0350147 97.7211311,37.8465922 98.039647,37.6263692 C98.8093938,38.3428814 99.4408828,38.88787 99.9343482,39.2609511 L99.9343482,39.2609511 Z M98.2387195,34.6257439 C98.2387195,34.4430057 98.3128837,34.2843867 98.4604315,34.1500407 C98.6086819,34.0156946 98.8000257,33.9484832 99.0350092,33.9484832 C99.2746768,33.9484832 99.4620391,34.0092423 99.5986574,34.1304533 C99.7352758,34.2516643 99.8031946,34.4000672 99.8031946,34.5755082 C99.8031946,34.7434215 99.7220043,34.9217046 99.558843,35.1100502 C99.3956816,35.2985495 99.1646015,35.4730688 98.8648218,35.6333776 C98.44716,35.193162 98.2387195,34.8572585 98.2387195,34.6257439 L98.2387195,34.6257439 Z M101.225587,37.8054972 C100.786066,37.4622197 100.362939,37.0909054 99.9569878,36.6914775 C100.446472,36.3743164 100.786066,36.1355046 100.97577,35.9749653 C101.164694,35.8145796 101.327075,35.6054177 101.462132,35.3480171 C101.596408,35.0904629 101.663546,34.8217708 101.663546,34.5417872 C101.663546,34.0418111 101.444176,33.6126565 101.003875,33.2543236 C100.563573,32.8960675 99.8757975,32.7169394 98.938986,32.7169394 C98.0209108,32.7169394 97.3362577,32.9054387 96.8850269,33.2823604 C96.4330153,33.659282 96.2073999,34.1387491 96.2073999,34.7209921 C96.2073999,34.997135 96.2643893,35.2686692 96.378368,35.5355178 C96.4923467,35.8023663 96.7007873,36.1167622 97.0044703,36.4787053 C96.2800028,36.7661398 95.7585111,37.1179436 95.4399171,37.5339631 C95.1206986,37.950213 94.9614407,38.3914272 94.9614407,38.8579129 C94.9614407,39.5072905 95.233116,40.0595764 95.775686,40.5148474 C96.3174753,40.970272 97.1442114,41.1978691 98.2558943,41.1978691 C98.9647483,41.1978691 99.5986574,41.1156791 100.15606,40.9515296 C100.558109,40.8320853 100.960079,40.6418194 101.362205,40.3805014 C101.555813,40.492418 101.775183,40.626764 102.019534,40.7835395 C102.263886,40.9403149 102.500431,41.078348 102.727608,41.1978691 L103.973567,39.7871973 C103.806424,39.6939463 103.669884,39.6136766 103.564493,39.5464652 L102.693258,38.9586149 C102.853297,38.6899228 102.975863,38.4567183 103.063299,38.2588479 C103.150734,38.0612079 103.241293,37.7979696 103.336535,37.4695937 L101.526928,37.072163 C101.444176,37.3295635 101.343469,37.5741363 101.225587,37.8054972 L101.225587,37.8054972 Z M85.4231385,36.9517969 C85.5995713,36.7409451 85.8361162,36.6354808 86.1319925,36.6354808 C86.4278688,36.6354808 86.6776852,36.7502395 86.8830031,36.9798337 C87.0875402,37.2093511 87.1898088,37.540569 87.1898088,37.9733338 C87.1898088,38.4064058 87.0922243,38.730096 86.8970552,38.9447117 C86.7018862,39.1593274 86.4598765,39.2664816 86.171807,39.2664816 C85.868124,39.2664816 85.6237723,39.1630144 85.4379714,38.9557728 C85.2521704,38.7487616 85.1592699,38.4305251 85.1592699,38.0014473 C85.1592699,37.5124554 85.2467057,37.1627256 85.4231385,36.9517969 L85.4231385,36.9517969 Z M87.3381373,35.9973179 C87.0727074,35.6353747 86.7869799,35.375977 86.4817355,35.2192016 C86.1764911,35.062503 85.788495,34.9840768 85.3185279,34.9840768 C84.5823502,34.9840768 83.9866943,35.2266525 83.53156,35.7118805 C83.0764258,36.196955 82.849249,36.9024061 82.849249,37.8279267 C82.849249,38.6377667 83.0256818,39.288911 83.3777668,39.7815131 C83.8750576,40.4756727 84.5277029,40.8227909 85.3349221,40.8227909 C85.7486805,40.8227909 86.1335539,40.7294631 86.4903229,40.5428074 C86.7174997,40.4235167 86.9454572,40.2313304 87.1726339,39.9663254 L87.1726339,40.8674961 C87.1726339,41.3042552 87.0906629,41.6102016 86.9251596,41.7855658 C86.7604369,41.96093 86.5114012,42.0487273 86.1772717,42.0487273 C85.9196486,42.0487273 85.7049626,41.9908871 85.5347752,41.8751298 C85.4168931,41.7968573 85.3294574,41.6549836 85.272468,41.4496623 L83.0256818,41.1978691 C83.0178751,41.3246107 83.0139717,41.4254662 83.0139717,41.5000517 C83.0139717,42.1009602 83.2403678,42.580581 83.6939407,42.9388371 C84.1467329,43.2970932 84.9804951,43.4762212 86.1944466,43.4762212 C86.7253065,43.4762212 87.1968349,43.4295189 87.6082513,43.3362678 C88.0196676,43.2429399 88.3592618,43.0917718 88.6262531,42.8827635 C88.894025,42.673832 89.1079303,42.4004543 89.2695303,42.0627841 C89.4303496,41.7248835 89.5115399,41.3693927 89.5115399,40.9963116 L89.5052945,40.7332269 L89.5052945,35.1184229 L87.3381373,35.1184229 L87.3381373,35.9973179 Z M75.3617833,41.0635231 L77.677269,41.0635231 L77.677269,38.2085354 C77.677269,37.6674642 77.7647047,37.292386 77.9387955,37.0833009 C78.113667,36.8743694 78.3408438,36.7698268 78.6218872,36.7698268 C78.875607,36.7698268 79.0731181,36.8473312 79.2136398,37.0021863 C79.3533808,37.1570414 79.4236417,37.4212015 79.4236417,37.7942057 L79.4236417,41.0635231 L81.7508375,41.0635231 L81.7508375,37.2847815 C81.7508375,36.5011347 81.5697207,35.9217338 81.2074869,35.5467325 C80.8452531,35.1716543 80.344059,34.9840768 79.7031238,34.9840768 C79.2284726,34.9840768 78.8264244,35.0690321 78.496979,35.2388657 C78.166753,35.4086994 77.8404303,35.6912946 77.518011,36.0869587 L77.518011,35.1184229 L75.3617833,35.1184229 L75.3617833,41.0635231 Z M71.5669162,41.0635231 L73.8824799,41.0635231 L73.8824799,35.1184997 L71.5669162,35.1184997 L71.5669162,41.0635231 Z M71.5669162,34.4074412 L73.8824799,34.4074412 L73.8824799,32.856816 L71.5669162,32.856816 L71.5669162,34.4074412 Z M66.7821516,34.0268325 L66.7821516,35.1184229 L65.9287163,35.1184229 L65.9287163,36.786572 L66.7821516,36.786572 L66.7821516,38.8776539 C66.7821516,39.5410883 66.8475722,40.0210163 66.9784136,40.317361 C67.1092549,40.6135522 67.3112939,40.8343897 67.5843745,40.9797968 C67.857455,41.125204 68.2822209,41.1978691 68.8587503,41.1978691 C69.3556507,41.1978691 69.890414,41.1361882 70.4631961,41.0131337 L70.2925403,39.4403864 C69.9852661,39.5372476 69.7463011,39.5856398 69.5756453,39.5856398 C69.385941,39.5856398 69.253226,39.5222691 69.1774224,39.3956812 C69.1280836,39.3137984 69.1034143,39.1461923 69.1034143,38.8929397 L69.1034143,36.786572 L70.3778682,36.786572 L70.3778682,35.1184229 L69.1034143,35.1184229 L69.1034143,32.8568928 L66.7821516,34.0268325 Z M62.8564431,38.6060429 C62.8564431,38.8896367 62.8099928,39.1201527 62.7170924,39.2973604 C62.6241138,39.4745682 62.4667295,39.6247377 62.2448613,39.7480226 C62.0229931,39.8710772 61.7830133,39.9326812 61.5251559,39.9326812 C61.2785403,39.9326812 61.0918025,39.8758396 60.9647085,39.7619258 C60.8376144,39.6481657 60.7741454,39.5016832 60.7741454,39.3225551 C60.7741454,39.1657797 60.8386292,39.0257495 60.967597,38.902695 C61.0927394,38.7832506 61.3904893,38.661886 61.8608467,38.5388315 C62.2059056,38.4529545 62.5378491,38.3540193 62.8564431,38.2421027 L62.8564431,38.6060429 Z M61.2065619,36.5179568 C61.3961882,36.3985125 61.6805886,36.3388287 62.0599191,36.3388287 C62.3557954,36.3388287 62.5625185,36.3948254 62.6800883,36.5067421 C62.7975801,36.6187355 62.8564431,36.8146088 62.8564431,37.0945924 C62.5681394,37.206509 62.2950588,37.2970716 62.0372015,37.3660497 C61.779188,37.4351047 61.2159301,37.5555476 60.3474278,37.7270711 C59.6229602,37.8690216 59.1260598,38.0853272 58.8568046,38.3764487 C58.5874713,38.6674934 58.4528827,39.0388845 58.4528827,39.4903917 C58.4528827,39.9719327 58.6396204,40.3768143 59.0132521,40.705267 C59.3868057,41.0336428 59.9339816,41.1978691 60.6547019,41.1978691 C61.1970377,41.1978691 61.6730941,41.1156791 62.0827149,40.9515296 C62.3822603,40.8283215 62.6838356,40.6231538 62.9872844,40.3357194 C63.0138274,40.5074733 63.0403704,40.6333699 63.0669915,40.7135628 C63.0934564,40.7939092 63.1503677,40.9105115 63.2376473,41.0635231 L65.4109718,41.0635231 C65.2895767,40.8171836 65.2108845,40.6147812 65.1748953,40.4561622 C65.1388281,40.2974664 65.1208725,40.078242 65.1208725,39.798412 L65.1208725,37.1728649 C65.1208725,36.8930349 65.0639613,36.5991482 64.9501387,36.2912814 C64.8363941,35.9832611 64.6808054,35.745371 64.4836065,35.5775345 C64.2028754,35.3349589 63.8521175,35.1754182 63.4310989,35.0988355 C63.0100802,35.0223297 62.4525212,34.9840768 61.758422,34.9840768 C61.3260054,34.9840768 60.9239572,35.0158006 60.5522772,35.079325 C60.1805192,35.1427726 59.8884682,35.2323366 59.6761243,35.3480171 C59.380248,35.5084028 59.1535396,35.6978238 58.9962333,35.9162033 C58.8387709,36.134506 58.7183126,36.4339233 58.6349364,36.8146088 L60.8480754,37.044203 C60.9391023,36.786572 61.0586238,36.6112846 61.2065619,36.5179568 L61.2065619,36.5179568 Z M53.3893386,41.0635231 L55.7163002,41.0635231 L55.7163002,39.0705315 C55.7163002,38.1189713 55.8357437,37.4695937 56.0747087,37.1224755 C56.2415392,36.8761361 56.4766789,36.7530815 56.7802058,36.7530815 C56.9394638,36.7530815 57.1557111,36.8090783 57.4287916,36.9209181 L58.1456085,35.2975509 C57.739735,35.0886194 57.3661814,34.9840768 57.0248697,34.9840768 C56.6985471,34.9840768 56.4246078,35.0634247 56.2027396,35.2220437 C55.9807933,35.3806626 55.7654828,35.6708624 55.5569642,36.0924892 L55.5569642,35.1184229 L53.3893386,35.1184229 L53.3893386,41.0635231 Z M48.6671062,34.0268325 L48.6671062,35.1184229 L47.8136709,35.1184229 L47.8136709,36.786572 L48.6671062,36.786572 L48.6671062,38.8776539 C48.6671062,39.5410883 48.7325269,40.0210163 48.8633682,40.317361 C48.9942095,40.6135522 49.1962485,40.8343897 49.4693291,40.9797968 C49.7424096,41.125204 50.1671756,41.1978691 50.7437049,41.1978691 C51.2406054,41.1978691 51.7753686,41.1361882 52.3481507,41.0131337 L52.1774949,39.4403864 C51.8702207,39.5372476 51.6312557,39.5856398 51.4605999,39.5856398 C51.2708956,39.5856398 51.1381806,39.5222691 51.062377,39.3956812 C51.0130382,39.3137984 50.9883689,39.1461923 50.9883689,38.8929397 L50.9883689,36.786572 L52.2628228,36.786572 L52.2628228,35.1184229 L50.9883689,35.1184229 L50.9883689,32.8568928 L48.6671062,34.0268325 Z M41.5695883,40.7332269 C42.037994,41.0429372 42.8240569,41.1978691 43.927855,41.1978691 C44.7091558,41.1978691 45.3264365,41.1018528 45.7797752,40.909897 C46.2329577,40.7179411 46.5649012,40.4596188 46.7753715,40.1353909 C46.9859199,39.8110094 47.0911551,39.4772566 47.0911551,39.1342863 C47.0911551,38.7950799 46.9915408,38.4838334 46.7924684,38.2003164 C46.5933179,37.9171066 46.306029,37.6989575 45.9305237,37.5461764 C45.5550185,37.3932416 44.9822363,37.2739509 44.2123334,37.1882275 C43.7039571,37.1285438 43.3740433,37.0614092 43.2223579,36.9869773 C43.0705944,36.9124686 42.9947908,36.8025492 42.9947908,36.6572188 C42.9947908,36.5267135 43.0545125,36.415949 43.173956,36.3246183 C43.2934775,36.2333644 43.4840406,36.1875838 43.7458013,36.1875838 C44.0036587,36.1875838 44.2236532,36.2474212 44.4057069,36.3667119 C44.5385,36.4562759 44.6333521,36.5963061 44.6901853,36.786572 L46.8863056,36.5739535 C46.7345422,36.1858171 46.5439791,35.8779504 46.3145384,35.6501997 C46.0850196,35.4226026 45.7986675,35.254766 45.4554042,35.1464596 C45.1121408,35.0381532 44.5801881,34.9840768 43.8595458,34.9840768 C43.1768445,34.9840768 42.632557,35.0540535 42.2266834,35.1938533 C41.8208099,35.3336531 41.5022159,35.5451962 41.2709015,35.8284828 C41.0395091,36.111923 40.9238129,36.4492859 40.9238129,36.8407252 C40.9238129,37.1986741 41.0309217,37.5175251 41.2452954,37.7970478 C41.4595129,38.0767241 41.7232253,38.2752859 42.0361204,38.3925794 C42.3490154,38.5101802 42.9075112,38.6378435 43.7116077,38.775723 C44.2501962,38.8688972 44.5821398,38.9471697 44.7072822,39.0103869 C44.8816852,39.0998741 44.9689648,39.2266924 44.9689648,39.3906115 C44.9689648,39.535865 44.9026073,39.6569224 44.7698924,39.7538604 C44.5991585,39.884289 44.3582418,39.9495033 44.0472985,39.9495033 C43.7628201,39.9495033 43.5352529,39.8917399 43.3645971,39.7759058 C43.1939413,39.6603021 43.0610702,39.4680391 42.9662961,39.199347 L40.6678292,39.4121191 C40.8005441,39.9830706 41.1011045,40.4235167 41.5695883,40.7332269 L41.5695883,40.7332269 Z M35.3766399,37.5647651 C35.4145808,37.2102729 35.503734,36.9433475 35.6440996,36.7642962 C35.8640161,36.4769386 36.1580187,36.3332214 36.5259514,36.3332214 C36.8445454,36.3332214 37.1014659,36.4283927 37.2968692,36.6187355 C37.4921163,36.8090783 37.6125747,37.1244727 37.6580881,37.5647651 L35.3766399,37.5647651 Z M40.0135444,38.3988013 C40.0135444,37.6150777 39.8827031,36.9789119 39.6209423,36.4899968 C39.3592597,36.0010817 38.9780555,35.6278471 38.4774078,35.3703697 C37.9767601,35.1128923 37.2939807,34.9840768 36.4292256,34.9840768 C35.3633684,34.9840768 34.5279668,35.2715113 33.9230208,35.8462266 C33.3179967,36.4208651 33.0155627,37.1728649 33.0155627,38.1022261 C33.0155627,38.7552907 33.1663113,39.3234001 33.4678865,39.8067078 C33.7693837,40.2900156 34.1496511,40.6427411 34.6086106,40.8648077 C35.0674921,41.0867974 35.6971855,41.1978691 36.4974567,41.1978691 C37.4192012,41.1978691 38.1264938,41.068055 38.619647,40.8087342 C39.112644,40.5494133 39.5336627,40.1211805 39.8827031,39.5241126 L37.6012549,39.3169478 C37.457064,39.4960758 37.3224754,39.6211275 37.1972549,39.6919491 C36.9924835,39.8038657 36.7762362,39.8599393 36.5486691,39.8599393 C36.188309,39.8599393 35.896258,39.7312006 35.6725162,39.4737232 C35.5132582,39.2945952 35.4127071,39.0222161 35.371019,38.6563555 L40.0135444,38.6563555 L40.0135444,38.3988013 Z M28.1653774,37.0301462 C28.3645279,36.8006288 28.6213704,36.6858701 28.9362952,36.6858701 C29.1979779,36.6858701 29.4207829,36.7959432 29.6047883,37.0160894 C29.7887156,37.2364661 29.8806793,37.5815872 29.8806793,38.0518367 C29.8806793,38.5855338 29.786842,38.965144 29.5990893,39.1909744 C29.4113367,39.4167279 29.1789294,39.5296431 28.9021016,39.5296431 C28.6024781,39.5296431 28.3550037,39.4148844 28.1596785,39.185367 C27.9642752,38.9557728 27.8666907,38.5855338 27.8666907,38.0741893 C27.8666907,37.6077036 27.9662269,37.2595868 28.1653774,37.0301462 L28.1653774,37.0301462 Z M25.545428,41.0635231 L27.7130536,41.0635231 L27.7130536,40.1845513 C28.0126772,40.5540989 28.289583,40.8059689 28.5436931,40.9403149 C28.8812575,41.1119921 29.2529375,41.1978691 29.6588111,41.1978691 C30.1329157,41.1978691 30.5643174,41.0755827 30.9531723,40.8311636 C31.341949,40.5868212 31.6463347,40.2172736 31.8663292,39.722828 C32.0862457,39.2283055 32.1963211,38.6563555 32.1963211,38.0070547 C32.1963211,37.0329115 31.9554044,36.2856741 31.4737272,35.7649584 C30.9920499,35.2443963 30.3832786,34.9840768 29.6474132,34.9840768 C29.2908784,34.9840768 28.9656486,35.0438374 28.671724,35.1632049 C28.3777214,35.282726 28.1150238,35.461854 27.8837095,35.700589 L27.8837095,32.8568928 L25.545428,32.8568928 L25.545428,41.0635231 Z M20.3850801,41.0635231 L22.7120417,41.0635231 L22.7120417,39.0705315 C22.7120417,38.1189713 22.8315633,37.4695937 23.0705283,37.1224755 C23.2373588,36.8761361 23.4724984,36.7530815 23.7760254,36.7530815 C23.9352833,36.7530815 24.1515306,36.8090783 24.4246112,36.9209181 L25.1414281,35.2975509 C24.7355545,35.0886194 24.3620009,34.9840768 24.0206112,34.9840768 C23.6943666,34.9840768 23.4204273,35.0634247 23.1984811,35.2220437 C22.9766129,35.3806626 22.7613024,35.6708624 22.5527838,36.0924892 L22.5527838,35.1184229 L20.3850801,35.1184229 L20.3850801,41.0635231 Z M14.6615523,37.5647651 C14.6994151,37.2102729 14.7886464,36.9433475 14.929012,36.7642962 C15.1489285,36.4769386 15.4429312,36.3332214 15.8108639,36.3332214 C16.1294578,36.3332214 16.3863784,36.4283927 16.5817817,36.6187355 C16.7770288,36.8090783 16.8974871,37.1244727 16.9430005,37.5647651 L14.6615523,37.5647651 Z M19.2984569,38.3988013 C19.2984569,37.6150777 19.1676155,36.9789119 18.9058548,36.4899968 C18.6441721,36.0010817 18.2629679,35.6278471 17.7623202,35.3703697 C17.2616726,35.1128923 16.5788932,34.9840768 15.7141381,34.9840768 C14.6482808,34.9840768 13.8128792,35.2715113 13.2079332,35.8462266 C12.6029091,36.4208651 12.3004752,37.1728649 12.3004752,38.1022261 C12.3004752,38.7552907 12.4512237,39.3234001 12.752799,39.8067078 C13.0542961,40.2900156 13.4345635,40.6427411 13.8935231,40.8648077 C14.3524046,41.0867974 14.9820199,41.1978691 15.7823692,41.1978691 C16.7040356,41.1978691 17.4114063,41.068055 17.9045595,40.8087342 C18.3975565,40.5494133 18.8185752,40.1211805 19.1676155,39.5241126 L16.8861673,39.3169478 C16.7419764,39.4960758 16.6073878,39.6211275 16.4821674,39.6919491 C16.277396,39.8038657 16.0611487,39.8599393 15.8335816,39.8599393 C15.4732214,39.8599393 15.1811704,39.7312006 14.9574286,39.4737232 C14.7980926,39.2945952 14.6976196,39.0222161 14.6558534,38.6563555 L19.2984569,38.6563555 L19.2984569,38.3988013 Z M8.79578537,41.0635231 L11.1114272,41.0635231 L11.1114272,35.1184997 L8.79578537,35.1184997 L8.79578537,41.0635231 Z M8.79578537,34.4074412 L11.1114272,34.4074412 L11.1114272,32.856816 L8.79578537,32.856816 L8.79578537,34.4074412 Z M0.927349677,40.3973234 C1.47351077,40.9347844 2.45583566,41.2034765 3.8744805,41.2034765 C4.68240233,41.2034765 5.35175413,41.0887178 5.88284816,40.8592003 C6.41378607,40.6296061 6.82731026,40.2929345 7.12310849,39.8486478 C7.41898478,39.4045915 7.56692292,38.919517 7.56692292,38.3931939 C7.56692292,37.9454506 7.45598883,37.540569 7.23404258,37.1785491 C7.01217439,36.8166059 6.65751318,36.5132712 6.17013702,36.268852 C5.68276085,36.0243561 4.87577583,35.782779 3.7493381,35.5438136 C3.29412579,35.4507162 3.00590013,35.3499374 2.88450498,35.241631 C2.75936258,35.1370884 2.69675235,35.0195645 2.69675235,34.8889823 C2.69675235,34.7098542 2.77263407,34.5577644 2.92431947,34.4327127 C3.07600486,34.3077379 3.30169835,34.2451352 3.60139996,34.2451352 C3.96550735,34.2451352 4.25084451,34.3291687 4.45764564,34.4970052 C4.66429064,34.6650722 4.7998941,34.9337643 4.86445603,35.3032351 L7.29384238,35.1632049 C7.18759234,34.3122698 6.854712,33.6919276 6.29535748,33.3019477 C5.73576876,32.9119678 4.92316288,32.7169394 3.85738369,32.7169394 C2.98880332,32.7169394 2.30508708,32.8241705 1.80639111,33.038863 C1.30761707,33.2534786 0.933985425,33.5482103 0.685574249,33.9232885 C0.437085006,34.2983667 0.312879418,34.696796 0.312879418,35.1184229 C0.312879418,35.7604264 0.555591657,36.2884394 1.04117227,36.7026154 C1.5228495,37.116945 2.32881964,37.4490847 3.45916075,37.6991112 C4.14943467,37.8483589 4.58934572,38.0070547 4.77905005,38.1748912 C4.9686763,38.3428814 5.06352846,38.5331473 5.06352846,38.7459195 C5.06352846,38.9699064 4.96399224,39.1667014 4.76484174,39.3364583 C4.5657693,39.5063688 4.28214963,39.5912472 3.91429499,39.5912472 C3.42114182,39.5912472 3.04188931,39.4252542 2.77645939,39.0929609 C2.61329806,38.88787 2.5051744,38.5892209 2.45208842,38.1972438 L-1.56135245e-05,38.3484119 C0.0720408022,39.1769176 0.381188588,39.8599393 0.927349677,40.3973234 L0.927349677,40.3973234 Z" id="Fill-12" fill="#FFFFFF" mask="url(#mask-2)"></path>
                        </g>
                        <polygon id="Fill-1" fill="#94C01F" points="140.374233 0.0558415558 75.2576687 0.060972756 75.2576687 6.39187813 102.513695 6.38674693 102.513695 27.2939368 111.136015 27.2939368 111.136015 6.38674693 140.374233 6.38674693"></polygon>
                        <path d="M154.733916,27.067061 L160.377424,27.067061 L160.377424,16.5387561 L167.669721,27.067061 L173.332746,27.067061 L173.332746,7.94729246 L167.669721,7.94729246 L167.669721,18.533284 L160.338391,7.94729246 L154.733916,7.94729246 L154.733916,27.067061 Z M144.375904,27.067061 L150.398743,27.067061 L150.398743,7.94729246 L144.375904,7.94729246 L144.375904,27.067061 Z M134.183395,19.6222627 C134.183395,20.6833582 133.888221,21.5030304 133.298108,22.0812791 C132.707917,22.6595278 131.894452,22.9487289 130.856153,22.9487289 C129.809188,22.9487289 128.991117,22.6552262 128.400926,22.068144 C127.810735,21.4811387 127.51642,20.6658449 127.51642,19.6222627 L127.51642,7.94729246 L121.531756,7.94729246 L121.531756,19.343969 C121.531756,20.2830086 121.716776,21.3609262 122.088378,22.5777987 C122.318678,23.3341769 122.744927,24.0688169 123.368609,24.7816421 C123.991667,25.4944673 124.679521,26.0444488 125.431234,26.4312025 C126.183025,26.8181099 127.118275,27.0764322 128.236984,27.207168 C129.354913,27.3373662 130.387747,27.4025036 131.333927,27.4025036 C132.969443,27.4025036 134.371538,27.1893474 135.538649,26.7636494 C136.378657,26.4593929 137.181192,25.9312263 137.946254,25.1793801 C138.710536,24.4276107 139.272623,23.549407 139.630954,22.5453836 C139.988503,21.5414369 140.168059,20.4742731 140.168059,19.343969 L140.168059,7.94729246 L134.183395,7.94729246 L134.183395,19.6222627 Z" id="Fill-2" fill="#94C01F"></path>
                    </g>
                </g>
            </g>
        </g>
    </g>
</svg>