<?xml version="1.0" encoding="UTF-8"?>
<svg width="1200pt" height="1200pt" version="1.1" viewBox="0 0 1200 1200" xmlns="http://www.w3.org/2000/svg">
 <path d="m844.8 688.8v-19.199h19.199v19.199zm19.199-58.801h-19.199v19.199h19.199zm0-98.398v-19.199h-19.199v19.199zm0-58.801h-19.199v19.199h19.199zm-38.398 19.199v-19.199h-19.199v-19.199h-19.199v19.199h-19.199l-0.003906 19.199h-19.199v19.199h19.199v19.199h19.199v19.199h19.199v-19.199h19.199v-19.199h19.199l0.003906-19.199zm0 235.2v-19.199h-19.199v19.199zm0-136.8h-19.199v19.199h19.199zm0-19.199v-19.199h-19.199v19.199zm0-136.8h-19.199v19.199h19.199zm-58.801 292.8h19.199v-19.199h-19.199zm0-136.8v19.199h19.199v-19.199zm0-19.199h19.199v-19.199h-19.199zm0-136.8v19.199h19.199v-19.199zm0 234v19.199h19.199v20.402h19.199v-19.199h19.199v-19.199h19.199v-19.199h-19.199v-19.199h-19.199v-19.199h-19.199v19.199h-19.199v19.199h-19.199v19.199h19.199zm-20.402 138v-19.199h-19.199v19.199zm0-58.797h-19.199v19.199h19.199zm-19.199-58.801h19.199v-19.199h-19.199zm0-216v19.199h19.199v-19.199zm19.199-58.801v-19.199h-19.199v19.199zm0-58.801h-19.199v19.199h19.199zm-78 157.2v19.199h19.199v19.199h-19.199v19.199h-58.801v-58.801h19.199l0.003906-19.195h19.199v19.199h20.398v-78h-19.199v19.199h-19.199v19.199h-19.199v20.402h-19.199v-19.199h-19.199v-19.199h-19.199v-19.199h-19.199v78h19.199l-0.003906-20.402h19.199v19.199h19.199v58.801h-58.801v-19.199h-19.199v-19.199h19.199v-19.199h-78v19.199h19.199v19.199h18.004v19.199h19.199v19.199h-19.199v19.199h-19.199v19.199h-19.199v19.199h78v-19.199h-19.199v-19.199h19.199v-19.199h58.801v58.801h-19.199v19.199h-19.199v-19.199h-19.199v78h19.199l-0.003906-18h19.199v-19.199h19.199v-19.199h19.199v19.199h19.199l0.003906 19.199h19.199v19.199h19.199v-78h-19.199v19.199h-19.199v-19.199h-19.199v-58.801h58.801v19.199h19.199v19.199h-19.199v19.199h78v-19.199h-19.199v-19.199l-19.203 0.003906v-19.199h-19.199v-19.199l19.199-0.003906v-19.199h19.199v-19.199h19.199v-19.199h-78zm39.602 195.6h-19.199v19.199h19.199zm0-254.4v-19.199h-19.199v19.199zm0-136.8h-19.199v19.199h19.199zm-20.398 97.199h20.398v-19.199h19.199v-19.199h-19.199v-19.199h-19.199v-20.402h-19.199v19.199h-19.199v19.199h-19.199v19.199h19.199v19.199h19.199v19.199h19.199v-17.996zm-38.402 430.8h19.199v-19.199h-19.199zm0-97.199v19.199h-19.199v19.199h19.199v19.199h19.199v19.199h19.199v-19.199h20.402v-19.199h19.199v-19.199h-19.199v-19.199h-19.199v-19.199h-19.199v19.199zm0-430.8v19.199h19.199v-19.199zm-20.398 313.2h19.199v-19.199h-19.199zm0-79.199h19.199v-19.199h-19.199zm-19.199 255.6h19.199v-19.199h-19.199zm0-58.797v19.199h19.199v-19.199zm0-333.6h19.199v-19.199h-19.199zm0-58.801v19.199h19.199v-19.199zm-19.203 451.2v-19.199h-19.199v19.199zm0-58.797h-19.199v19.199h19.199zm0-333.6v-19.199h-19.199v19.199zm0-58.801h-19.199v19.199h19.199zm-19.199 254.4h-19.199v19.199h19.199zm0-78h-19.199v19.199h19.199zm-20.398 313.2v-19.199h-19.199v19.199zm0-430.8v-19.199h19.199v-19.199h-19.199v-19.199h-19.199v-20.402h-19.199v19.199h-20.402v19.199h-19.199v19.199l19.199 0.003906v19.199h19.199v19.199h19.199v-19.199h20.402zm0-97.199h-19.199v19.199h19.199zm-38.402 430.8h-20.398v19.199h-19.199v19.199h19.199v19.199h19.199v19.199h19.199v-19.199h19.199v-19.199h19.199v-19.199h-19.199v-19.199h-19.199v-19.199h-19.199v19.199zm-20.398 97.199h19.199v-19.199h-19.199zm0-136.8v19.199h19.199v-19.199zm0-254.4h19.199v-19.199l-19.199-0.003906zm0-136.8v19.199h19.199v-19.199zm-38.398 489.6h19.199v-19.199h-19.199zm0-58.797v19.199h19.199v-19.199zm19.199-58.801v-19.199h-19.199v19.199zm0-216h-19.199v19.199h19.199zm-19.199-58.801h19.199v-19.199h-19.199zm0-58.801v19.199h19.199v-19.199zm-20.402 136.8v-19.199h-19.199v-19.199h-19.199v19.199h-19.199v19.199h-19.199v19.199h19.199v19.199h19.199v19.199h19.199v-19.199h19.199v-19.199h19.199v-19.199zm0 235.2v-19.199h-19.199v19.199zm0-97.199h-19.199v-19.199h-19.199v19.199h-19.199v19.199h-19.199v19.199h19.199v19.199h19.199v20.402h19.199v-19.199h19.199v-19.199h19.199v-19.199h-19.199zm0-39.602h-19.199v19.199h19.199zm0-19.199v-19.199h-19.199v19.199zm0-136.8h-19.199v19.199h19.199zm-58.801 292.8h19.199l0.003906-19.199h-19.199zm0-136.8v19.199h19.199v-19.199zm0-19.199h19.199v-19.199h-19.199zm0-136.8v19.199h19.199v-19.199zm-38.398 254.4h19.199v-19.199h-19.199zm0-58.801v19.199h19.199v-19.199zm0-98.398h19.199v-19.199l-19.199-0.003906zm0-58.801v19.199h19.199v-19.199zm351.6 372h20.398v-19.199h-19.199v19.199z"/>
</svg>
