<?xml version="1.0" encoding="UTF-8"?>
<svg width="1200pt" height="1200pt" version="1.1" viewBox="0 0 1200 1200" xmlns="http://www.w3.org/2000/svg">
 <g>
  <path d="m170.55 312.94 363.93 286.36c16.461 12.926 39.312 17.801 61.301 16.762 22.125 1.0391 44.789-5.1133 61.438-18.211l363.93-284.68c29.035-23.039 22.508-38.176-14.527-38.176h-821.56c-36.988 0-43.562 14.898-14.5 37.938z"/>
  <path d="m142.76 385.06c-29.613-22.363-55.262-10.301-55.262 26.699v495.36c0 9.5234 3.6133 18.602 7.2109 26.852l332.76-332.76z"/>
  <path d="m1046.9 385.06-277.75 211.02 328.73 329.1c1.6094-5.7734 2.1602-11.824 2.1602-18.074v-495.35c0-37-23.574-49.062-53.137-26.699z"/>
  <path d="m649.57 687c-14.875 11.148-34.363 16.637-53.637 16.461-19.5 0.17578-38.988-5.3008-53.863-16.461l-67.625-51.336-336 336.21c6.1758 1.8984 12.727 3.125 19.488 3.125h875.77c10.012 0 19.488-2.4766 28.051-6.4609l-337.8-337.9z"/>
 </g>
</svg>
