<?xml version="1.0" encoding="UTF-8"?>
<svg width="1200pt" height="1200pt" classNames="fill-white" version="1.1" viewBox="0 0 1200 1200" xmlns="http://www.w3.org/2000/svg">
 <path d="m950 150h-700c-82.727 0-150 67.273-150 150v422.18c0 82.727 67.273 150 150 150h210.3l78.125 140.6c12.602 22.699 35.625 36.25 61.574 36.25s49-13.551 61.602-36.25l78.125-140.6h210.27c82.727 0 150-67.273 150-150v-422.18c0-82.727-67.273-150-150-150zm-650 425c-41.426 0-75-33.574-75-75s33.574-75 75-75 75 33.574 75 75-33.574 75-75 75zm300 0c-41.426 0-75-33.574-75-75s33.574-75 75-75 75 33.574 75 75-33.574 75-75 75zm300 0c-41.426 0-75-33.574-75-75s33.574-75 75-75 75 33.574 75 75-33.574 75-75 75z"/>
</svg>
